<svg version="1.1" xmlns="http://www.w3.org/2000/svg"
viewBox="510,510" width="505" height="505" preserveAspectRatio="xMinYMin meet" >


<!--<rect width="500" height="500" x="3" y="0" stroke="darkorchid" stroke-width="6" fill="none" />-->

<g id="hat" stroke-width="6"  stroke="black" fill="white" stroke-linejoin="round">
<path 
d="M175,240
V280
A70,30 0 0,0 325,280
V240
" 
/>
<path 
d="M250,120
L400,200
250,280
100,200
Z
" 
/>
<path stroke-linecap="round"

d="M115,208
V280
A5,6 0 1,0 115,279
" 
/>
</g>

<g id="atom-thingy" stroke-width="4" fill="none"  stroke="black">
<ellipse id="orbit" rx="25" ry="60" cx="80" cy="80"  />
<symbol id="orbits">   <ellipse id="orbit3" rx="25" ry="60" cx="0" cy="0" 
transform="rotate(120)"/>
<ellipse id="orbit2" rx="25" ry="60" cx="0" cy="0"
transform="rotate(60)" /> </symbol>
<use href="#orbit2" x="80" y="80"  />
<use href="#orbit3" x="80" y="80"/>
<circle cx="80" cy="80" r="5" />
</g>


<g id="divider" stroke-width="4" stroke-linecap="round" fill="none" stroke="black">
<circle r="10" cx="400" cy="360"/>
<polyline 
points="400,350 400,335>"
/>
<polyline   
points="405,370 450,470"
/>
<polyline   
points="395,370 350,470"
/>
<polyline 
points="430,415 370,415" stroke-width="3"
/>
<polyline 
points="399.5,414 399.5,422"
/>
</g>

<g id="book" stroke-width="4" stroke-linecap="round" stroke="black" fill="white" stroke-linejoin="round">
<path 
d="M130,370
L130,470
q45,-20 90,0
v-100
q-45,-20 -90,0
q-45,-20 -90,0
v100
q45,-20 90,0
" 
/>
<path id="writing"
d="M145,390
L205,390
M145,410
L205,410
M145,430
L205,430
" 
/>
<use href="#writing"  x="-90" />
</g>

<symbol id="glob" stroke-width="4" stroke-linecap="round" stroke="black" fill="none" stroke-linejoin="round">
<circle cx="420" cy="90" r="45" fill="white"/>
<polyline stroke-width="3"
points="420,45 420,135" 
/>
<path stroke-width="3"
d="M420,45
A 100,70 0 0,0 420,135
A 100,70 0 0,0 420,45
M459,67.5
A90,70 0 0,1 381,67.5
M381,112.5
A90,70 0 0,1 459,112.5
"
/>
<polyline stroke-width="3"
points="375,90 465,90" 
/>
<polyline 
points="420,45 420,35" 
/>
<polyline 
points="420,135 420,145" 
/>
<path 
d="M420,35
A52,52 0 0 0 420,145
M420,90
M375,125
l-10,10
m-5,-5
l10,10
" 
/>
</symbol>
<use href="#glob" x="-190" y="260" transform="rotate(-45)"/>

</svg>