<?xml version="1.0" encoding="UTF-8" standalone="no"?>
<!-- Created with Inkscape (http://www.inkscape.org/) -->

<svg
   xmlns:dc="http://purl.org/dc/elements/1.1/"
   xmlns:cc="http://creativecommons.org/ns#"
   xmlns:rdf="http://www.w3.org/1999/02/22-rdf-syntax-ns#"
   xmlns:svg="http://www.w3.org/2000/svg"
   xmlns="http://www.w3.org/2000/svg"
   xmlns:sodipodi="http://sodipodi.sourceforge.net/DTD/sodipodi-0.dtd"
   xmlns:inkscape="http://www.inkscape.org/namespaces/inkscape"
   width="1000"
   height="1000"
   viewBox="0 0 264.58333 264.58333"
   version="1.1"
   id="svg8"
   inkscape:version="0.92.4 (5da689c313, 2019-01-14)"
   sodipodi:docname="family.svg">
  <defs
     id="defs2" />
  <sodipodi:namedview
     id="base"
     pagecolor="#ffffff"
     bordercolor="#666666"
     borderopacity="1.0"
     inkscape:pageopacity="0.0"
     inkscape:pageshadow="2"
     inkscape:zoom="8"
     inkscape:cx="512.15781"
     inkscape:cy="743.24056"
     inkscape:document-units="mm"
     inkscape:current-layer="g950"
     showgrid="false"
     inkscape:snap-global="false"
     inkscape:window-width="1920"
     inkscape:window-height="1000"
     inkscape:window-x="-11"
     inkscape:window-y="-11"
     inkscape:window-maximized="1"
     units="px" />
  <metadata
     id="metadata5">
    <rdf:RDF>
      <cc:Work
         rdf:about="">
        <dc:format>image/svg+xml</dc:format>
        <dc:type
           rdf:resource="http://purl.org/dc/dcmitype/StillImage" />
        <dc:title></dc:title>
      </cc:Work>
    </rdf:RDF>
  </metadata>
  <g
     inkscape:label="Layer 1"
     inkscape:groupmode="layer"
     id="layer1"
     transform="translate(0,-32.41665)">
    <g
       id="g859">
      <g
         id="g950"
         style="stroke-width:4.59058536;stroke-miterlimit:4;stroke-dasharray:none"
         transform="matrix(0.69163293,0,0,0.69163293,533.84946,56.744339)">
        <path
           sodipodi:nodetypes="ccccccccccccccccccccccccc"
           inkscape:connector-curvature="0"
           id="path914"
           d="m -579.17526,57.890946 c -16.07079,-4.417332 -27.07209,11.378944 -37.69468,20.313867 -14.38984,14.575855 -29.17721,30.467467 -49.28891,36.811457 -15.72341,2.18711 -33.01032,-1.91418 -47.56063,5.57882 -13.71084,9.81083 -18.85471,26.90273 -26.23178,41.32568 -6.4944,16.31081 -15.08967,31.64248 -22.16025,47.66434 -1.90751,8.42196 -9.83275,23.89306 -0.70106,28.91174 5.7632,0.14069 10.70643,-21.06302 15.91824,-32.00222 8.28823,-16.41265 20.37172,-30.35572 31.79613,-44.60341 12.27473,-9.24804 7.51034,15.07542 7.05766,21.5837 -2.67624,18.54441 -5.69495,37.13999 -4.55314,55.94888 0.5388,15.31636 -1.11297,30.83099 0.83148,46.01536 3.42501,14.02531 3.26768,39.77126 12.51838,41.62743 7.6534,-5.17176 5.38108,-12.77241 6.61948,-31.08335 0.13294,-20.12289 -1.25709,-41.46287 5.6513,-61.06464 8.547,-15.98264 17.24934,7.50367 15.74843,16.33614 0.64817,17.57914 1.23534,35.18653 -1.22785,52.67291 -0.0647,6.77788 -4.71849,27.84138 6.53182,22.31548 8.57335,-15.62676 12.26029,-33.36247 15.62975,-50.67116 2.02557,-24.91375 -1.35438,-50.30338 -11.08103,-73.39073 -5.33241,-18.03135 -6.04863,-37.78017 0.027,-55.72484 9.0707,-10.97069 20.33598,-19.93502 28.84138,-31.40765 11.40375,-12.04851 25.26073,-22.438992 32.91697,-37.506531 5.63545,-7.81064 26.53554,-18.452041 20.41127,-19.651273 z"
           style="fill:#ffffff;stroke:#000000;stroke-width:4.59058523;stroke-linecap:butt;stroke-linejoin:miter;stroke-miterlimit:4;stroke-dasharray:none;stroke-opacity:1" />
        <path
           sodipodi:nodetypes="cccccccccccccccccccccccccc"
           inkscape:connector-curvature="0"
           id="path918"
           d="m -579.93766,71.012212 c 13.31532,-5.501618 24.0686,7.994153 33.18595,15.252744 16.54569,15.431484 32.42959,34.684884 55.80373,40.036554 12.89332,2.09833 26.47918,2.40056 38.62865,7.2808 15.22282,8.07207 24.63869,22.65924 32.15472,37.24965 5.80806,12.05364 12.01043,23.87081 18.6557,35.51062 5.70496,14.4133 6.27155,17.7117 8.66061,31.33531 -1.73162,4.40413 -7.97562,0.72593 -11.15235,-4.86928 -6.78702,-10.01528 -11.15515,-21.30706 -17.55438,-31.45931 -6.99513,-7.11617 -18.3528,-37.88239 -30.47512,-31.34756 -7.90666,24.87827 4.58376,38.18963 5.97266,50.11584 1.6088,14.96457 4.20862,28.07619 2.05339,43.92716 -2.3153,12.24147 -1.31976,23.84987 -5.41833,35.70146 -3.86899,10.67769 -4.83947,31.94169 -13.65523,32.29124 -10.13299,-0.70094 -4.45304,-24.82982 -4.8377,-36.56513 0.48115,-16.41055 2.0528,-33.40539 -2.76747,-49.35698 -1.45509,-10.0641 -10.68816,-14.4245 -14.53266,-2.88017 -4.06397,12.096 -2.41831,25.1605 -3.32385,37.70797 -0.60472,15.20288 3.57931,30.21231 2.45295,45.37235 -4.05942,15.28824 -13.33208,-7.56223 -14.98438,-14.1557 -4.20029,-15.05929 -8.8459,-28.9892 -11.00591,-46.04512 -3.14456,-18.53532 -1.53921,-37.05064 5.55976,-54.17597 5.90827,-17.88459 23.38788,-27.08465 8.74888,-55.46432 -7.65328,-9.63344 -18.31549,-16.7453 -25.68171,-26.90117 -10.95922,-12.34795 -25.13047,-21.92583 -33.65655,-36.199519 -4.53052,-10.252816 -19.20801,-13.405716 -22.83136,-22.361469 z"
           style="fill:#ffffff;stroke:#000000;stroke-width:4.59058523;stroke-linecap:butt;stroke-linejoin:miter;stroke-miterlimit:4;stroke-dasharray:none;stroke-opacity:1" />
        <path
           style="fill:#ffffff;stroke:#000000;stroke-width:4.59058536;stroke-linecap:butt;stroke-linejoin:miter;stroke-miterlimit:4;stroke-dasharray:none;stroke-opacity:1"
           d="m -675.02549,103.5859 c 2.8075,-0.97448 4.76087,-3.32723 7.05148,-5.093578 2.7462,-3.451296 2.42924,-8.099975 2.89201,-12.238492 -0.0402,-6.280761 -4.29682,-12.061653 -9.97982,-14.534636 -2.98947,-1.579292 -6.33163,-2.233166 -9.62276,-2.802213 -3.29968,-0.565881 -6.73946,-0.0228 -9.90287,0.993466 -2.89995,1.11396 -5.62329,2.784807 -7.90854,4.890171 -1.76792,1.809523 -2.60509,4.277927 -3.71754,6.498964 -1.0147,2.930192 -1.32255,6.222409 -0.53235,9.246206 1.08988,2.980966 1.81843,6.258717 4.18672,8.548745 1.56883,2.247147 3.96355,3.608217 6.48209,4.533717 5.1281,2.08996 10.82215,1.79784 16.19477,1.05784 1.66508,-0.17145 3.18335,-0.96549 4.85681,-1.10019 z"
           id="path923"
           inkscape:connector-curvature="0" />
        <path
           style="fill:#ffffff;stroke:#000000;stroke-width:4.59058536;stroke-linecap:butt;stroke-linejoin:miter;stroke-miterlimit:4;stroke-dasharray:none;stroke-opacity:1"
           d="m -483.03298,116.24544 c -3.00245,-1.22249 -5.59129,-3.48539 -7.73385,-5.84538 -2.06562,-3.50166 -1.92317,-7.76117 -2.17723,-11.681844 0.41312,-6.362383 5.31181,-11.636598 11.13846,-13.75833 3.59298,-1.443459 7.47209,-2.230015 11.32949,-2.402913 5.7147,0.07722 11.35461,2.402636 15.40763,6.429681 2.16252,3.069265 4.08211,6.596181 4.16688,10.447949 0.33699,3.557147 -1.33491,6.884307 -2.70871,10.051707 -1.83877,2.6628 -4.09141,5.30424 -7.26886,6.34979 -5.94677,2.6573 -12.73892,2.30256 -18.99027,1.13887 -1.03491,-0.31663 -2.08157,-0.62714 -3.16354,-0.72953 z"
           id="path929"
           inkscape:connector-curvature="0" />
        <path
           sodipodi:nodetypes="cccccccccccccccccccccccccccccccccc"
           inkscape:connector-curvature="0"
           id="path931"
           d="m -618.73753,230.95195 c -1.36977,6.40053 -1.62697,8.66051 -2.05993,15.37066 -0.3128,6.40731 1.34129,10.97078 3.54775,17.19172 4.58933,3.22288 4.9738,-7.15287 6.15966,-10.69097 0.88402,-7.67635 0.91837,-6.52106 1.88007,-13.68114 1.92166,-8.57857 3.44532,-13.12845 11.54655,-27.48944 2.99781,-1.59501 0.62709,27.1514 -1.0124,36.36354 -0.9579,6.3742 -1.51319,11.429 -2.54205,19.37113 -1.63398,6.8876 -1.35217,15.47471 -2.41049,22.4489 -0.73884,8.10283 -0.48238,15.49729 -0.91983,23.8184 0.29533,4.50874 -0.33684,16.71045 8.15163,11.91726 2.00528,-1.68289 5.23723,-13.70092 6.16798,-20.89212 0.35666,-7.04917 1.73906,-13.8442 3.53873,-20.83728 1.20517,-6.7238 2.54467,-13.66958 5.72619,-19.73065 3.80318,-3.68752 5.83655,6.89693 6.72958,10.37904 0.70076,6.175 1.18369,12.36321 2.36094,18.4945 1.55646,9.336 2.26849,20.3738 5.81176,29.14153 2.67367,8.32302 11.70978,3.19977 10.34787,-4.18792 -0.008,-6.69906 -1.04873,-14.58258 -1.51297,-21.24972 -0.69343,-6.54544 -0.55209,-14.41864 -1.72062,-21.59185 -0.0168,-7.04637 -2.4681,-13.42789 -3.3092,-20.36026 -1.26417,-5.57055 -2.19572,-10.46666 -2.83985,-17.09529 -0.98734,-5.97799 -3.62856,-20.94515 -1.57452,-26.67665 1.26259,-5.95906 9.04885,12.37718 10.21105,18.72899 3.21512,9.79135 3.16203,27.26477 4.39738,31.9947 1.24233,4.86577 6.15377,-2.61042 7.78268,-7.98494 0.99977,-3.83656 1.33438,-8.15701 0.77198,-12.80455 -1.63817,-16.43098 -1.59466,-15.28847 -4.16399,-25.45674 -2.87398,-6.81728 -7.60785,-17.30955 -14.61635,-22.74535 -5.26647,-2.7191 -12.713,-2.27638 -18.5138,-1.63689 -6.38062,0.65106 -11.76506,-1.12194 -17.65332,2.41327 -4.70831,2.39469 -7.63787,6.71998 -9.9153,11.95698 -4.75729,8.7382 -5.76337,10.55556 -8.97576,20.16903 z"
           style="fill:#ffffff;stroke:#000000;stroke-width:4.59058523;stroke-linecap:butt;stroke-linejoin:miter;stroke-miterlimit:4;stroke-dasharray:none;stroke-opacity:1" />
        <path
           style="fill:#ffffff;stroke:#000000;stroke-width:4.59058523;stroke-linecap:butt;stroke-linejoin:miter;stroke-miterlimit:4;stroke-dasharray:none;stroke-opacity:1"
           d="m -592.19504,181.15778 c -2.67927,-1.20008 -4.83723,-3.44583 -6.7339,-5.6051 -2.01253,-3.43332 -1.74679,-7.56847 -2.11264,-11.39124 0.10123,-6.39426 4.50027,-12.2201 10.40089,-14.51262 2.97651,-1.24264 6.19613,-1.98257 9.40369,-2.18987 4.13234,0.0439 8.16553,1.46067 11.38573,4.06157 3.14296,2.01573 4.44479,5.67288 5.70401,8.99506 0.87328,3.4769 0.80846,7.21269 -0.61668,10.54085 -0.8055,3.34602 -2.90349,6.26537 -5.48238,8.47963 -3.93304,2.53204 -8.68279,3.57542 -13.32446,3.14781 -2.80887,-0.0411 -5.53775,-0.67957 -8.20997,-1.46917 z"
           id="path938"
           inkscape:connector-curvature="0" />
      </g>
      <path
         style="fill:#ffffff;stroke:#000000;stroke-width:3.175;stroke-linecap:butt;stroke-linejoin:miter;stroke-miterlimit:4;stroke-dasharray:none;stroke-opacity:1"
         d="m 133.63135,68.43685 c -7.09704,-7.745008 -15.94081,-2.274478 -16.51254,3.225696 -0.57175,5.500171 4.02912,13.44066 15.90057,17.121426 13.2015,-3.546012 16.4211,-10.404646 16.61502,-16.617265 0.19692,-6.308653 -8.7793,-11.147854 -16.00305,-3.729857 z"
         id="path986"
         inkscape:connector-curvature="0"
         sodipodi:nodetypes="cscsc" />
    </g>
  </g>
</svg>
