<?xml version="1.0" encoding="UTF-8" standalone="no"?>
<!-- Created with Inkscape (http://www.inkscape.org/) -->

<svg
   xmlns:dc="http://purl.org/dc/elements/1.1/"
   xmlns:cc="http://creativecommons.org/ns#"
   xmlns:rdf="http://www.w3.org/1999/02/22-rdf-syntax-ns#"
   xmlns:svg="http://www.w3.org/2000/svg"
   xmlns="http://www.w3.org/2000/svg"
   xmlns:sodipodi="http://sodipodi.sourceforge.net/DTD/sodipodi-0.dtd"
   xmlns:inkscape="http://www.inkscape.org/namespaces/inkscape"
   width="1000"
   height="1000"
   viewBox="0 0 264.58333 264.58334"
   version="1.1"
   id="svg8"
   inkscape:version="0.92.4 (5da689c313, 2019-01-14)"
   sodipodi:docname="happiness.svg">
  <defs
     id="defs2" />
  <sodipodi:namedview
     id="base"
     pagecolor="#ffffff"
     bordercolor="#666666"
     borderopacity="1.0"
     inkscape:pageopacity="0.0"
     inkscape:pageshadow="2"
     inkscape:zoom="0.35355339"
     inkscape:cx="676.55652"
     inkscape:cy="573.28975"
     inkscape:document-units="mm"
     inkscape:current-layer="layer1"
     showgrid="false"
     units="px"
     inkscape:snap-global="false"
     inkscape:window-width="1920"
     inkscape:window-height="1000"
     inkscape:window-x="-11"
     inkscape:window-y="-11"
     inkscape:window-maximized="1" />
  <metadata
     id="metadata5">
    <rdf:RDF>
      <cc:Work
         rdf:about="">
        <dc:format>image/svg+xml</dc:format>
        <dc:type
           rdf:resource="http://purl.org/dc/dcmitype/StillImage" />
        <dc:title></dc:title>
      </cc:Work>
    </rdf:RDF>
  </metadata>
  <g
     inkscape:label="Layer 1"
     inkscape:groupmode="layer"
     id="layer1"
     transform="translate(0,-32.41665)">
    <g
       id="g862"
       transform="matrix(1.2490606,0,0,1.1953576,3.1869431,-10.015119)">
      <path
         sodipodi:nodetypes="csc"
         inkscape:connector-curvature="0"
         id="path823"
         d="M 24.055062,143.20216 C 8.278711,115.46771 20.871445,78.546308 52.181722,60.7359 83.491999,42.925491 121.66325,50.970517 137.43961,78.704971"
         style="opacity:0.98999999;fill:none;fill-opacity:1;stroke:#eb725f;stroke-width:9.26041698;stroke-linecap:round;stroke-linejoin:round;stroke-miterlimit:4;stroke-dasharray:none;stroke-dashoffset:0;stroke-opacity:1;paint-order:normal" />
      <path
         sodipodi:nodetypes="csc"
         inkscape:connector-curvature="0"
         id="ellipse834"
         d="M 31.428387,139.95783 C 17.735354,115.88581 28.665172,83.840011 55.840821,68.381525 83.016465,52.923043 116.60704,59.644053 130.30007,83.716077"
         style="opacity:0.98999999;fill:none;fill-opacity:1;stroke:#eb995f;stroke-width:9.17465591;stroke-linecap:round;stroke-linejoin:round;stroke-miterlimit:4;stroke-dasharray:none;stroke-dashoffset:0;stroke-opacity:1;paint-order:normal" />
      <path
         sodipodi:nodetypes="csc"
         inkscape:connector-curvature="0"
         id="ellipse836"
         d="M 39.097588,135.01675 C 27.620519,114.84033 36.922723,87.900242 59.874645,74.844364 82.826563,61.788491 110.73677,67.56083 122.21384,87.737246"
         style="opacity:0.98999999;fill:none;fill-opacity:1;stroke:#edf65e;stroke-width:9.44438457;stroke-linecap:round;stroke-linejoin:round;stroke-miterlimit:4;stroke-dasharray:none;stroke-dashoffset:0;stroke-opacity:1;paint-order:normal" />
      <path
         sodipodi:nodetypes="csc"
         inkscape:connector-curvature="0"
         id="ellipse838"
         d="M 47.467141,130.54243 C 38.32881,114.47747 45.873827,92.948382 64.319408,82.455875 82.764986,71.963369 105.12615,76.480741 114.26448,92.545706"
         style="opacity:0.98999999;fill:none;fill-opacity:1;stroke:#46c040;stroke-width:9.37612534;stroke-linecap:round;stroke-linejoin:round;stroke-miterlimit:4;stroke-dasharray:none;stroke-dashoffset:0;stroke-opacity:1;paint-order:normal" />
      <path
         sodipodi:nodetypes="csc"
         inkscape:connector-curvature="0"
         id="ellipse840"
         d="M 55.584953,126.00777 C 48.726729,113.95116 54.509879,97.72516 68.501985,89.765944 82.494089,81.806735 99.396621,85.128323 106.25484,97.184917"
         style="opacity:0.98999999;fill:none;fill-opacity:1;stroke:#72c9d8;stroke-width:9.3891449;stroke-linecap:round;stroke-linejoin:round;stroke-miterlimit:4;stroke-dasharray:none;stroke-dashoffset:0;stroke-opacity:1;paint-order:normal" />
      <path
         sodipodi:nodetypes="csc"
         inkscape:connector-curvature="0"
         id="ellipse842"
         d="M 62.674828,124.94075 C 57.397909,115.66406 61.609962,103.31449 72.082709,97.357217 82.555455,91.399944 95.323077,94.090865 100.6,103.36756"
         style="opacity:0.98999999;fill:none;fill-opacity:1;stroke:#aa82c8;stroke-width:9.26041698;stroke-linecap:round;stroke-linejoin:round;stroke-miterlimit:4;stroke-dasharray:none;stroke-dashoffset:0;stroke-opacity:1;paint-order:normal" />
    </g>
    <ellipse
       style="opacity:0.98999999;fill:#e3d5bb;fill-opacity:1;stroke:#170713;stroke-width:3.37650943;stroke-linecap:round;stroke-linejoin:round;stroke-miterlimit:4;stroke-dasharray:none;stroke-dashoffset:0;stroke-opacity:1;paint-order:normal"
       id="path869"
       cx="170.35515"
       cy="184.15508"
       rx="60.449482"
       ry="55.071411" />
    <g
       id="g947"
       transform="translate(-16.463803,2.9934183)">
      <path
         inkscape:connector-curvature="0"
         d="m 228.95067,132.99596 c 0,0 15.54659,-0.99463 17.61871,-16.48283 m 0.22142,33.54738 c 0,0 0.38231,-15.89634 -17.84013,-17.06455 m 17.61871,-16.48283 c 0,0 0.36741,15.99136 17.45201,16.65924 m -17.23059,16.88814 c 0,0 -1.19938,-13.22874 17.23059,-16.88814"
         style="fill:none;stroke:#000000;stroke-width:3.17499995;stroke-linecap:round;stroke-linejoin:round;stroke-miterlimit:4;stroke-dasharray:none;stroke-opacity:1"
         id="path881" />
      <path
         inkscape:connector-curvature="0"
         id="path886"
         d="m 237.57968,132.29885 c 3.64655,-1.86327 6.47566,-4.54531 8.33978,-7.90624 0.24215,-0.43662 0.44618,-0.79923 0.45337,-0.8058 0.009,-0.007 0.11613,0.22434 0.24204,0.51323 0.31663,0.72647 0.8532,1.72858 1.36601,2.55122 0.63337,1.01604 2.43563,3.07345 3.41081,3.89369 1.33445,1.1224 2.92513,2.10141 4.42719,2.72472 0.56436,0.23421 0.69259,0.31097 0.5971,0.35746 -2.71991,1.32417 -4.10014,2.22434 -5.82243,3.7973 -1.49964,1.3697 -2.65203,2.79035 -3.47071,4.27897 l -0.26116,0.47481 -0.0773,-0.1552 c -0.77174,-1.55176 -1.38067,-2.52865 -2.33507,-3.74598 -1.69829,-2.16617 -4.27146,-4.09189 -6.9817,-5.22494 -0.3922,-0.16396 -0.71778,-0.30326 -0.72352,-0.30954 -0.006,-0.007 0.3702,-0.20594 0.83544,-0.44369 z"
         style="opacity:0.98999999;fill:#ffdd55;fill-opacity:1;stroke:none;stroke-width:0.89735413;stroke-linecap:round;stroke-linejoin:round;stroke-miterlimit:4;stroke-dasharray:none;stroke-dashoffset:0;stroke-opacity:1;paint-order:normal" />
    </g>
    <g
       id="g951"
       transform="translate(7.4835469,-8.2319011)">
      <path
         inkscape:connector-curvature="0"
         id="path888"
         style="fill:none;stroke:#000000;stroke-width:3.17499995;stroke-linecap:round;stroke-linejoin:round;stroke-miterlimit:4;stroke-dasharray:none;stroke-opacity:1"
         d="m 84.342425,201.97214 c 0,0 -0.896482,-15.55257 -16.371302,-17.72239 m 33.548097,-0.0107 c 0,0 -15.893598,-0.48263 -17.176795,17.73207 M 67.971123,184.24915 c 0,0 15.993375,-0.26648 16.769046,-17.34652 m 16.779051,17.33683 c 0,0 -13.236031,1.11588 -16.779051,-17.33683" />
      <path
         style="opacity:0.98999999;fill:#ffdd55;fill-opacity:1;stroke:none;stroke-width:3.17499995;stroke-linecap:round;stroke-linejoin:round;stroke-miterlimit:4;stroke-dasharray:none;stroke-dashoffset:0;stroke-opacity:1;paint-order:normal"
         d="m 83.699819,193.33889 c -1.840242,-3.65824 -4.504394,-6.50422 -7.853472,-8.3895 -0.435081,-0.2449 -0.796389,-0.45123 -0.802931,-0.45845 -0.0068,-0.009 0.225069,-0.11469 0.514758,-0.23878 0.728458,-0.31207 1.733919,-0.8423 2.559784,-1.34991 1.020016,-0.62694 3.088763,-2.41619 3.915141,-3.38617 1.13081,-1.32733 2.11982,-2.91182 2.752617,-4.40988 0.237761,-0.56288 0.315332,-0.69063 0.361214,-0.59487 1.30698,2.72822 2.198429,4.11412 3.760478,5.8463 1.360204,1.50824 2.773569,2.6696 4.256972,3.49766 l 0.473163,0.26413 -0.155674,0.0762 c -1.556617,0.76193 -2.537317,1.36469 -3.760661,2.31139 -2.176831,1.68457 -4.118745,4.24555 -5.268886,6.94858 -0.16644,0.39116 -0.307781,0.71585 -0.314121,0.72157 -0.0068,0.006 -0.203599,-0.3715 -0.438382,-0.83824 z"
         id="path890"
         inkscape:connector-curvature="0" />
    </g>
    <g
       id="g943"
       transform="translate(-10.476965,2.2450641)">
      <path
         d="m 258.84885,227.07524 c 0,0 -15.41916,2.22146 -16.25946,17.82504 m -2.87528,-33.42466 c 0,0 0.87653,15.87675 19.13427,15.59966 m -16.259,17.825 c 0,0 -1.63139,-15.91219 -18.71528,-15.22632 m 15.84049,-18.19839 c 0,0 2.24221,13.09237 -15.84049,18.19839"
         style="fill:none;stroke:#000000;stroke-width:3.17499995;stroke-linecap:round;stroke-linejoin:round;stroke-miterlimit:4;stroke-dasharray:none;stroke-opacity:1"
         id="path892"
         inkscape:connector-curvature="0" />
      <path
         inkscape:connector-curvature="0"
         id="path894"
         d="m 250.30205,228.4528 c -3.48772,2.14595 -6.09577,5.04342 -7.68814,8.54127 -0.20686,0.45442 -0.38156,0.83203 -0.38821,0.83916 -0.007,0.009 -0.13354,-0.21444 -0.28187,-0.49249 -0.37312,-0.69913 -0.9873,-1.65565 -1.56359,-2.43514 -0.71175,-0.96275 -2.67115,-2.87113 -3.70817,-3.61164 -1.41905,-1.01333 -3.08222,-1.86341 -4.62885,-2.36593 -0.58114,-0.18884 -0.71503,-0.25521 -0.62354,-0.30911 2.60664,-1.5352 3.91134,-2.54176 5.50378,-4.24602 1.38656,-1.48405 2.42297,-2.99144 3.12132,-4.54014 l 0.22274,-0.49399 0.0892,0.1486 c 0.89209,1.48585 1.57639,2.41148 2.62411,3.54951 1.86432,2.02502 4.58179,3.74112 7.37317,4.65619 0.40394,0.13244 0.73953,0.24555 0.74576,0.25136 0.007,0.007 -0.35274,0.2346 -0.79772,0.50837 z"
         style="opacity:0.98999999;fill:#ffdd55;fill-opacity:1;stroke:none;stroke-width:0.89735413;stroke-linecap:round;stroke-linejoin:round;stroke-miterlimit:4;stroke-dasharray:none;stroke-dashoffset:0;stroke-opacity:1;paint-order:normal" />
    </g>
    <path
       style="fill:#ea99c0;fill-opacity:1;stroke:#ea99c0;stroke-width:9.26041698;stroke-linecap:round;stroke-linejoin:miter;stroke-miterlimit:4;stroke-dasharray:none;stroke-opacity:1"
       d="m 127.47995,202.78329 c 13.87841,0.98866 13.87841,0.98866 13.87841,0.98866"
       id="path898"
       inkscape:connector-curvature="0" />
    <path
       inkscape:connector-curvature="0"
       id="path902"
       d="m 216.24651,201.62403 c -12.37255,0.8814 -12.37255,0.8814 -12.37255,0.8814"
       style="fill:none;stroke:#ea99c0;stroke-width:9.26041698;stroke-linecap:round;stroke-linejoin:miter;stroke-miterlimit:4;stroke-dasharray:none;stroke-opacity:1" />
    <path
       style="fill:none;stroke:#000000;stroke-width:5.00127077;stroke-linecap:round;stroke-linejoin:miter;stroke-miterlimit:4;stroke-dasharray:none;stroke-opacity:1"
       d="m 182.61994,183.9696 c 9.11236,-7.31068 21.13257,-5.93559 28.46701,3.90033"
       id="path904"
       inkscape:connector-curvature="0"
       sodipodi:nodetypes="cc" />
    <path
       style="fill:#a2dae1;fill-opacity:1;stroke:#000000;stroke-width:2.12045407;stroke-linecap:butt;stroke-linejoin:miter;stroke-miterlimit:4;stroke-dasharray:none;stroke-opacity:1"
       d="m 391.12849,221.23361 c -9.76967,9.84152 -12.71495,22.26912 -2.37058,22.55646 10.34437,0.28735 11.52262,-3.5701 10.63171,-7.18358 -0.96848,-3.92812 -5.12313,-7.99581 -8.26113,-15.37288 z"
       id="path906"
       inkscape:connector-curvature="0"
       sodipodi:nodetypes="cssc" />
    <path
       sodipodi:nodetypes="cc"
       inkscape:connector-curvature="0"
       id="path908"
       d="m 134.29365,189.33747 c 6.68059,-9.65536 18.69173,-11.87445 28.63242,-4.64089"
       style="fill:none;stroke:#000000;stroke-width:5.01969147;stroke-linecap:round;stroke-linejoin:miter;stroke-miterlimit:4;stroke-dasharray:none;stroke-opacity:1" />
    <path
       style="fill:#73e1e7;fill-opacity:0.99215686;stroke:#000000;stroke-width:3.86176586;stroke-linecap:butt;stroke-linejoin:miter;stroke-miterlimit:4;stroke-dasharray:none;stroke-opacity:1"
       d="m 86.043539,292.73453 c 0,0 -0.1333,-8.26063 1.459597,-15.99755 5.461361,-15.92897 12.911834,-20.61766 31.559004,-23.98102 44.65979,-0.542 78.10362,0.10728 113.19999,0.60793 7.29632,0.34408 18.23024,10.31398 21.55935,16.95297 3.32911,6.63899 4.12836,22.09587 4.12836,22.09587 z"
       id="path912"
       inkscape:connector-curvature="0"
       sodipodi:nodetypes="cccczcc" />
  </g>
</svg>
