<?xml version="1.0" encoding="UTF-8" standalone="no"?>
<!-- Created with Inkscape (http://www.inkscape.org/) -->

<svg
   xmlns:dc="http://purl.org/dc/elements/1.1/"
   xmlns:cc="http://creativecommons.org/ns#"
   xmlns:rdf="http://www.w3.org/1999/02/22-rdf-syntax-ns#"
   xmlns:svg="http://www.w3.org/2000/svg"
   xmlns="http://www.w3.org/2000/svg"
   xmlns:sodipodi="http://sodipodi.sourceforge.net/DTD/sodipodi-0.dtd"
   xmlns:inkscape="http://www.inkscape.org/namespaces/inkscape"
   width="100"
   height="100"
   viewBox="0 0 26.458333 26.458334"
   version="1.1"
   id="svg959"
   inkscape:version="0.92.4 (5da689c313, 2019-01-14)"
   sodipodi:docname="pinterest.svg">
  <defs
     id="defs953" />
  <sodipodi:namedview
     id="base"
     pagecolor="#ffffff"
     bordercolor="#666666"
     borderopacity="1.0"
     inkscape:pageopacity="0.0"
     inkscape:pageshadow="2"
     inkscape:zoom="2.8"
     inkscape:cx="56.812086"
     inkscape:cy="27.984888"
     inkscape:document-units="mm"
     inkscape:current-layer="layer1"
     showgrid="false"
     units="px"
     inkscape:window-width="1920"
     inkscape:window-height="1000"
     inkscape:window-x="-11"
     inkscape:window-y="-11"
     inkscape:window-maximized="1" />
  <metadata
     id="metadata956">
    <rdf:RDF>
      <cc:Work
         rdf:about="">
        <dc:format>image/svg+xml</dc:format>
        <dc:type
           rdf:resource="http://purl.org/dc/dcmitype/StillImage" />
        <dc:title></dc:title>
      </cc:Work>
    </rdf:RDF>
  </metadata>
  <g
     inkscape:label="Layer 1"
     inkscape:groupmode="layer"
     id="layer1"
     transform="translate(0,-270.54165)">
    <g
       id="g1515"
       transform="matrix(0.0998186,0,0,0.0998186,3.8277325,264.26508)">
      <path
         style="fill:#fdfdfd;stroke-width:0.26458332"
         d="M -38.704754,198.72619 V 63.259529 H 96.761906 232.22857 V 198.72619 334.19285 H 96.761906 -38.704754 Z"
         id="path1531"
         inkscape:connector-curvature="0" />
      <path
         style="fill:#ebcfce;stroke-width:0.26458332"
         d="M -38.704754,198.72619 V 63.259529 H 96.761906 232.22857 V 198.72619 334.19285 H 96.761906 -38.704754 Z m 95.088123,97.79629 c 8.152852,-10.90703 14.163129,-21.6113 17.484555,-31.13989 1.044342,-2.99604 2.244569,-7.45301 6.251178,-23.21343 1.639072,-6.44746 3.110576,-11.90105 3.270012,-12.11909 0.43189,-0.59064 0.952949,-0.24943 2.128001,1.39351 3.807023,5.32293 11.487319,9.74897 19.865255,11.44806 3.49983,0.70979 10.57216,0.78314 14.79516,0.15346 15.65519,-2.33431 28.22843,-10.01923 38.09565,-23.28454 8.6371,-11.61155 14.0673,-26.49512 15.87952,-43.52395 0.58968,-5.54107 0.71651,-15.16607 0.24927,-18.91771 -0.98823,-7.9349 -3.61695,-16.32583 -7.13849,-22.78618 -10.03217,-18.40427 -27.90075,-31.0956 -49.73178,-35.322477 -5.6852,-1.100757 -10.96461,-1.526659 -17.717743,-1.429332 -9.126884,0.131535 -15.19769,0.877384 -22.963996,2.821319 -23.186601,5.80369 -41.424745,20.05147 -51.264127,40.04792 -3.238736,6.58204 -5.240644,12.7492 -6.527332,20.10833 -0.66082,3.77953 -0.669123,15.43899 -0.01394,19.59 2.545445,16.1273 9.59319,27.27873 20.817106,32.93823 3.371077,1.69982 5.416719,1.69464 6.635371,-0.0168 0.286766,-0.40272 1.069801,-2.79802 1.740077,-5.32287 1.723724,-6.49306 1.959639,-7.73801 1.667111,-8.79746 -0.135414,-0.49043 -1.259374,-2.24484 -2.497688,-3.89868 -5.350092,-7.14538 -7.20985,-13.60133 -6.925585,-24.04138 0.244282,-8.97169 1.989037,-16.05846 5.847937,-23.75288 3.03435,-6.05033 5.908654,-9.99398 10.659099,-14.62468 4.885671,-4.76252 8.279537,-7.15383 14.241629,-10.03461 8.642018,-4.17567 16.586921,-5.91459 26.987498,-5.90681 7.670963,0.006 13.083843,0.8038 19.314583,2.84768 11.53007,3.78224 20.12449,11.13308 25.01474,21.3952 3.42619,7.18981 4.69261,14.10795 4.39168,23.99069 -0.9083,29.82944 -12.96596,53.07959 -30.09997,58.0402 -6.21118,1.79825 -12.27832,1.25268 -17.342209,-1.55944 -2.708727,-1.50423 -5.815129,-4.73545 -7.168893,-7.45694 -1.533001,-3.08182 -2.02143,-5.51912 -1.838984,-9.17669 0.168651,-3.38103 1.064043,-6.95493 4.795891,-19.1425 4.069151,-13.28916 5.084925,-17.31977 5.717975,-22.68901 0.98466,-8.35138 -2.253929,-15.87979 -8.011466,-18.6234 -8.166951,-3.89175 -17.8148,-0.56101 -23.610534,8.15111 -1.828041,2.7479 -2.430825,3.98791 -3.603688,7.41328 -2.911293,8.50248 -2.637335,19.10091 0.740473,28.64613 l 0.908878,2.56837 -3.577584,15.15871 c -1.967672,8.3373 -5.43319,23.01684 -7.701153,32.62122 -2.267963,9.60437 -4.350567,18.83171 -4.62801,20.5052 -1.641175,9.89933 -1.636294,22.09831 0.01408,35.18958 0.42608,3.3798 0.609669,4.17817 1.043903,4.53955 0.295027,0.24553 0.764458,0.37638 1.066731,0.29733 0.296908,-0.0776 1.529824,-1.46559 2.739808,-3.08433 z"
         id="path1529"
         inkscape:connector-curvature="0" />
      <path
         style="fill:#d9a09f;stroke-width:0.26458332"
         d="M -38.704754,198.72619 V 63.259529 H 96.761906 232.22857 V 198.72619 334.19285 H 96.761906 -38.704754 Z m 92.776805,100.9467 c 0.305232,-0.2138 1.385922,-1.49372 2.401533,-2.84428 7.936727,-10.55422 14.250609,-21.72585 17.561033,-31.07204 1.005282,-2.83818 2.835486,-9.67479 7.132446,-26.64281 1.499164,-5.91996 2.327037,-8.74088 2.59547,-8.84389 0.249346,-0.0957 0.642673,0.18175 1.070576,0.75514 1.540047,2.06363 4.799557,5.1551 6.965516,6.60642 4.0494,2.71332 8.350515,4.45759 13.694535,5.55364 2.48865,0.51042 3.37086,0.55663 8.46666,0.44351 6.07681,-0.13489 9.23856,-0.57054 13.90805,-1.91634 22.66751,-6.53305 39.24436,-26.91696 44.94992,-55.27318 2.18115,-10.84015 2.77315,-22.5943 1.56659,-31.10454 -2.20354,-15.54221 -11.0572,-30.99408 -23.51882,-41.04626 -11.61163,-9.36654 -25.12503,-14.790381 -41.00678,-16.458793 -4.02938,-0.423296 -14.576543,-0.374176 -19.18229,0.08934 -8.798518,0.885465 -17.43271,2.965683 -25.301778,6.095923 -22.202927,8.83209 -38.847792,27.10678 -44.94194,49.34254 -1.763374,6.43404 -2.10925,9.22807 -2.111692,17.0585 -0.0024,7.89233 0.296439,10.57756 1.851445,16.63282 3.212253,12.50863 9.918284,21.63398 19.372076,26.36088 3.069413,1.5347 4.732682,1.79616 6.072204,0.9545 0.465034,-0.2922 1.037698,-0.82457 1.272582,-1.18305 0.572053,-0.87307 3.305654,-11.36278 3.353178,-12.86723 0.04348,-1.37634 -0.470979,-2.52566 -1.901574,-4.2482 -3.243011,-3.90481 -5.835464,-9.2503 -6.921936,-14.27263 -0.530333,-2.45153 -0.601363,-3.52463 -0.604215,-9.12813 -0.0034,-6.61597 0.200551,-8.50297 1.45819,-13.49375 1.55268,-6.16161 4.514865,-12.91276 7.778053,-17.72708 9.184193,-13.54981 23.172014,-21.82857 40.493115,-23.96603 3.348051,-0.41316 11.881792,-0.41603 15.345832,-0.005 21.45377,2.54461 35.98071,14.89781 39.80595,33.84958 1.54271,7.64319 1.35485,18.15551 -0.52089,29.14765 -3.76308,22.05238 -14.76229,38.49539 -28.39295,42.4454 -6.20865,1.7992 -12.66656,1.16114 -17.56253,-1.73522 -2.045483,-1.21006 -5.024932,-4.22592 -6.238131,-6.31435 -1.70556,-2.93599 -2.17333,-4.87644 -2.16857,-8.99583 0.004,-3.4385 0.05146,-3.74477 1.2716,-8.20208 0.697111,-2.54662 2.145983,-7.48771 3.219715,-10.98021 5.443066,-17.70452 6.684186,-23.7769 5.980776,-29.26182 -1.24207,-9.68512 -7.377295,-15.22152 -16.297052,-14.70637 -4.655902,0.26889 -8.416115,1.98334 -12.221466,5.57231 -9.213156,8.68927 -11.840543,25.00046 -6.519243,40.47239 l 0.896176,2.60568 -3.568788,15.1214 c -1.962835,8.31677 -5.424394,22.97953 -7.692357,32.58391 -5.149038,21.80515 -5.484283,23.7595 -5.854835,34.13124 -0.180097,5.04097 0.380119,14.80079 1.231799,21.45979 0.583507,4.56223 0.65694,4.8278 1.420207,5.13621 0.765101,0.30915 0.76654,0.30901 1.39261,-0.1295 z"
         id="path1527"
         inkscape:connector-curvature="0" />
      <path
         style="fill:#ce807e;stroke-width:0.26458332"
         d="M -38.704754,198.72619 V 63.259529 H 96.761906 232.22857 V 198.72619 334.19285 H 96.761906 -38.704754 Z m 93.637318,100.33069 c 0.523171,-0.5526 2.320438,-2.93465 3.993927,-5.29344 7.99076,-11.26304 13.979252,-22.80804 16.502784,-31.81511 1.003065,-3.58017 2.724137,-10.24152 5.84132,-22.6086 1.100375,-4.36563 2.129888,-8.23479 2.287804,-8.59815 l 0.287121,-0.66066 0.829148,1.05753 c 4.78077,6.09758 11.461551,10.14176 19.892442,12.04178 3.12993,0.70537 9.0981,0.95437 13.22917,0.55194 28.53428,-2.77967 49.75128,-25.72838 55.79765,-60.35181 1.24582,-7.13395 1.90345,-17.38158 1.47767,-23.02593 -0.6903,-9.1508 -2.48502,-15.80043 -6.46072,-23.93761 -8.05259,-16.48147 -22.69076,-28.95006 -41.15613,-35.05623 -6.84825,-2.264592 -13.2865,-3.436024 -21.8293,-3.971821 -3.90978,-0.245218 -5.828403,-0.225435 -10.715627,0.11048 -11.080678,0.761616 -18.723043,2.311391 -27.865759,5.650831 -3.929912,1.43542 -11.999608,5.52032 -15.658197,7.92621 -18.143304,11.93105 -30.380735,30.97332 -32.948244,51.26969 -0.451228,3.567 -0.375708,13.66402 0.130612,17.4625 2.194179,16.46108 9.98907,28.69538 21.795064,34.20796 3.335769,1.55758 5.445741,1.25847 6.742496,-0.95579 0.616357,-1.05246 3.345521,-11.49675 3.350368,-12.82161 0.0049,-1.35208 -0.493017,-2.44996 -1.891226,-4.16966 -2.912594,-3.58227 -4.714218,-6.85058 -6.008935,-10.90075 -1.625106,-5.08369 -2.201119,-11.02123 -1.636557,-16.86952 2.321687,-24.05028 17.478475,-42.44617 40.213421,-48.80729 15.7379,-4.40338 34.105724,-2.33082 46.188414,5.21176 10.96625,6.84563 17.39779,17.64099 19.03712,31.95386 0.51181,4.46848 0.51294,6.6203 0.007,12.87763 -1.02732,12.7 -3.65113,23.21191 -8.04704,32.23921 -5.70387,11.7133 -13.35873,18.8694 -22.84526,21.35679 -3.14464,0.82454 -8.23128,0.81594 -11.15538,-0.0188 -7.506178,-2.1429 -12.339655,-7.57447 -13.436363,-15.09899 -0.520398,-3.57044 0.282728,-7.14143 5.361492,-23.83914 4.455381,-14.64816 5.136111,-17.84443 5.127911,-24.07708 -0.006,-4.29878 -0.0565,-4.78172 -0.71048,-6.74688 -1.791214,-5.3825 -5.465522,-9.02745 -10.394283,-10.31123 -2.040101,-0.53138 -6.664597,-0.52996 -8.727969,0.003 -8.573928,2.21329 -15.31753,10.63612 -17.499985,21.85766 -0.377235,1.93963 -0.479758,3.7307 -0.4748,8.29463 0.0073,6.6987 0.396676,9.21584 2.303174,14.88818 l 1.091165,3.24651 -1.499608,6.41078 c -0.824783,3.52591 -2.571464,10.93514 -3.881514,16.46493 -1.310047,5.52979 -3.332792,14.10229 -4.494985,19.05 -1.16219,4.94771 -2.891035,12.27005 -3.841874,16.27188 -2.010468,8.46152 -2.649704,12.2818 -3.031876,18.11944 -0.594476,9.08058 0.0031,22.70061 1.317059,30.01717 0.141996,0.79071 0.258178,1.46681 0.258178,1.50245 0,0.0356 0.187097,0.2519 0.415774,0.48058 0.715846,0.71584 1.699302,0.50399 2.734048,-0.58895 z"
         id="path1525"
         inkscape:connector-curvature="0" />
      <path
         style="fill:#c66866;stroke-width:0.26458332"
         d="M -38.704754,198.72619 V 63.259529 H 96.761906 232.22857 V 198.72619 334.19285 H 96.761906 -38.704754 Z m 92.797229,101.25346 c 1.197546,-0.6654 7.050767,-8.83405 11.08091,-15.46434 2.835333,-4.66462 6.185252,-11.17431 7.879712,-15.31216 1.919656,-4.68778 2.401419,-6.40444 8.232354,-29.33425 1.258179,-4.94771 2.377514,-9.08887 2.487417,-9.20258 0.1099,-0.11371 0.931854,0.68516 1.826564,1.77528 5.822722,7.0944 16.641318,11.78974 27.169768,11.79185 2.93949,5.3e-4 8.70226,-0.69799 12.16194,-1.47432 20.74343,-4.65464 37.19521,-20.99249 45.1393,-44.82669 3.57981,-10.74033 5.10524,-20.42257 5.12722,-32.54375 0.017,-9.38419 -0.57925,-13.33657 -3.20285,-21.23004 -4.64163,-13.96499 -14.34016,-26.26573 -27.47561,-34.84758 -7.70142,-5.0316 -18.4053,-9.18554 -27.91354,-10.832633 -6.36538,-1.102662 -7.93281,-1.220277 -16.0073,-1.201142 -10.014146,0.02373 -16.120031,0.748339 -24.341661,2.888715 -6.927083,1.80336 -11.40832,3.49203 -17.594791,6.63028 -10.820294,5.48888 -19.406718,12.66427 -26.580186,22.21219 -6.884336,9.16309 -11.195404,19.04826 -13.442542,30.82345 -0.510614,2.67565 -0.581366,3.93801 -0.585785,10.45155 -0.0055,8.14404 0.257792,10.66244 1.72393,16.48799 3.280325,13.03399 10.460275,22.62752 20.432119,27.30049 3.788817,1.7755 5.977186,1.35087 7.194229,-1.39595 0.336807,-0.76016 1.237208,-3.88243 2.000888,-6.93836 1.612241,-6.45154 1.600493,-6.71571 -0.414049,-9.31141 -4.444286,-5.72638 -6.532599,-10.21593 -7.597256,-16.33292 -0.509027,-2.9246 -0.396724,-12.90378 0.181856,-16.15984 2.241047,-12.61188 7.29208,-22.42885 15.799564,-30.70733 3.447568,-3.35476 4.460967,-4.18933 7.797188,-6.42122 6.215816,-4.15831 13.92787,-7.15885 21.800459,-8.48193 9.765617,-1.64122 20.415657,-1.07939 29.098387,1.53506 7.58069,2.28261 13.25484,5.59793 18.41609,10.76024 8.39143,8.39317 12.37968,19.80163 11.92404,34.10893 -0.69104,21.69844 -6.84891,39.59151 -17.22238,50.04348 -5.93717,5.9821 -12.12218,8.81324 -19.27469,8.82283 -3.49789,0.005 -6.1722,-0.58222 -9.10994,-1.99931 -4.154332,-2.00394 -7.234683,-5.37839 -8.884241,-9.73247 -0.762306,-2.01215 -0.817319,-2.3927 -0.827905,-5.72724 -0.01072,-3.3784 0.04846,-3.79401 1.092735,-7.67291 0.60724,-2.25558 1.576424,-5.64886 2.153745,-7.54063 6.598636,-21.62249 7.289766,-24.53118 7.292686,-30.69166 0.002,-4.36837 -0.40499,-6.34055 -1.981837,-9.60193 -1.814325,-3.75255 -4.607068,-6.12595 -8.972523,-7.62526 -2.020568,-0.69396 -7.38315,-0.69308 -9.657292,0.002 -10.263443,3.1351 -17.227422,14.1811 -17.786513,28.2123 -0.223575,5.611 0.786482,12.33365 2.60051,17.30821 0.421418,1.15564 0.766212,2.49406 0.766212,2.97427 0,0.48021 -1.077642,5.42828 -2.394764,10.99571 -1.31712,5.56743 -2.983497,12.62292 -3.703058,15.67885 -0.719564,3.05594 -2.084866,8.83047 -3.034006,12.83229 -1.615072,6.80956 -2.359726,9.97644 -3.172902,13.49375 -0.185039,0.80037 -0.953106,4.06285 -1.706819,7.24996 -1.736018,7.34085 -2.322147,11.31069 -2.709402,18.35074 -0.359561,6.53661 -0.04643,14.89995 0.849379,22.68576 0.64454,5.60194 0.873013,6.58947 1.650534,7.13406 0.691232,0.48416 0.935376,0.49271 1.714106,0.06 z"
         id="path1523"
         inkscape:connector-curvature="0" />
      <path
         style="fill:#bc4a48;stroke-width:0.26458332"
         d="M -38.704754,198.72619 V 63.259529 H 96.761906 232.22857 V 198.72619 334.19285 H 96.761906 -38.704754 Z M 54.994881,299.334 c 3.063938,-3.23996 10.400717,-14.38581 14.324866,-21.76198 1.610363,-3.02697 3.955685,-8.28439 5.040183,-11.29837 0.965782,-2.68405 2.576388,-8.65606 6.122175,-22.70059 1.690007,-6.69396 3.129005,-12.33384 3.19777,-12.53308 0.07886,-0.22849 1.158356,0.72376 2.923648,2.57905 4.949211,5.20152 10.772777,8.32941 18.625047,10.00368 3.09474,0.65986 11.84996,0.66163 15.98277,0.003 23.72243,-3.77921 42.13724,-21.85134 50.13507,-49.20215 2.16507,-7.40405 3.4627,-15.54444 4.00146,-25.10234 0.96575,-17.13269 -3.7353,-32.09667 -14.19018,-45.169 -11.34984,-14.19136 -27.92834,-23.40669 -47.18953,-26.230806 -12.14367,-1.780527 -25.923684,-0.971333 -38.240628,2.245576 -15.020001,3.92289 -27.2163,10.93112 -37.573125,21.59025 -8.751935,9.0074 -14.551369,18.98666 -18.002861,30.97807 -1.869527,6.49525 -2.655548,12.98347 -2.414338,19.92918 0.650906,18.7429 7.687119,33.01321 19.809938,40.17702 2.346682,1.38674 5.195731,2.55526 6.210932,2.54738 1.213424,-0.009 2.867099,-0.91123 3.475204,-1.89517 0.648972,-1.05007 3.491126,-11.87471 3.491126,-13.29633 0,-1.34703 -0.577934,-2.58041 -2.113176,-4.50977 -2.04719,-2.57274 -4.132937,-6.05305 -5.052182,-8.43016 -3.121033,-8.07077 -3.384322,-17.9189 -0.756158,-28.28341 5.114472,-20.1696 20.091838,-34.91655 40.332973,-39.7125 8.701391,-2.06171 18.472605,-2.30097 27.119795,-0.66406 10.05247,1.90294 17.64349,5.70447 23.95541,11.99673 6.42592,6.40589 10.1729,14.15699 11.61182,24.02046 0.54476,3.73427 0.55007,12.67688 0.0106,17.85889 -1.26179,12.12037 -4.41828,23.28268 -8.92004,31.54404 -1.53435,2.81574 -4.36597,6.93221 -6.4031,9.30851 -6.35684,7.41519 -15.92451,11.33872 -24.15232,9.90443 -7.258892,-1.26539 -12.416611,-5.58753 -14.497688,-12.149 -1.542436,-4.86318 -0.741765,-9.65577 4.274314,-25.58478 2.167739,-6.88385 4.001794,-13.4748 4.785644,-17.19791 0.59181,-2.81098 0.69931,-4.00214 0.71635,-7.9375 0.018,-4.14802 -0.0445,-4.83686 -0.59957,-6.61459 -0.90788,-2.90753 -2.358953,-5.4904 -4.016006,-7.14836 -1.790047,-1.79102 -3.260355,-2.67356 -5.969008,-3.58282 -1.779508,-0.59736 -2.52032,-0.69687 -5.13031,-0.6891 -5.557874,0.0165 -9.478428,1.72555 -13.812345,6.02096 -6.486591,6.42897 -9.733565,16.51027 -8.918222,27.68957 0.365947,5.01759 1.059415,8.39106 2.669423,12.9858 l 0.81834,2.33543 -0.567134,2.42707 c -0.31193,1.3349 -1.565217,6.6538 -2.785086,11.81979 -1.219872,5.16598 -3.300018,13.97661 -4.622548,19.57916 -1.322533,5.60255 -3.125648,13.22255 -4.006927,16.93333 -3.88303,16.35022 -4.285684,18.48547 -4.764847,25.26771 -0.529822,7.49926 -0.203946,18.26327 0.805019,26.59062 0.290923,2.4011 0.599681,4.60375 0.686131,4.8948 0.519514,1.74902 2.154695,1.96102 3.571311,0.46302 z"
         id="path1521"
         inkscape:connector-curvature="0" />
      <path
         style="fill:#b9403e;stroke-width:0.26458332"
         d="M -38.704754,198.72619 V 63.259529 H 96.761906 232.22857 V 198.72619 334.19285 H 96.761906 -38.704754 Z m 93.236738,101.31086 c 2.33231,-1.8346 10.719834,-14.46368 14.949802,-22.5099 3.858474,-7.33957 5.4248,-11.60361 8.196103,-22.31242 1.834044,-7.08707 5.639221,-22.07247 5.966055,-23.49528 0.167087,-0.72738 0.219851,-0.68915 2.846758,2.06224 5.047072,5.28623 11.13038,8.49387 19.144348,10.09452 2.92246,0.58371 10.71587,0.65527 14.2779,0.13109 19.09766,-2.81036 34.08094,-13.64809 44.5421,-32.21827 4.05684,-7.20151 7.61937,-17.5666 9.40044,-27.35034 1.32471,-7.27689 1.59198,-10.454 1.60254,-19.05 0.0109,-8.83972 -0.20328,-10.74996 -1.9451,-17.35179 -4.02387,-15.25125 -14.27183,-29.33387 -27.9354,-38.38849 -9.85212,-6.52883 -19.98054,-10.241529 -33.20521,-12.171781 -4.65288,-0.679127 -18.35082,-0.677013 -23.547914,0.0036 -16.843424,2.205929 -30.186956,7.410591 -42.333331,16.512161 -4.013298,3.00726 -11.355233,10.35832 -14.336791,14.35461 -7.858217,10.53263 -12.743346,22.34098 -14.226743,34.38889 -0.419238,3.40498 -0.34408,12.95129 0.130659,16.59599 1.947074,14.94819 8.322778,26.55858 18.01505,32.80608 5.935572,3.82598 9.61913,4.24982 11.335712,1.30429 0.364628,-0.62568 1.286672,-3.65139 2.164363,-7.10242 1.871028,-7.35679 1.894097,-7.14942 -1.257453,-11.30386 -3.388201,-4.4664 -5.731663,-9.77122 -6.590421,-14.91852 -0.483799,-2.89983 -0.611868,-8.3705 -0.282864,-12.08295 1.307418,-14.75282 8.198183,-28.31223 18.939112,-37.26775 7.018367,-5.85174 15.632094,-9.94695 24.8462,-11.81259 3.8838,-0.78639 11.994575,-1.539 14.444424,-1.34034 6.921157,0.56126 8.971327,0.80239 11.749227,1.38186 16.08874,3.35612 27.45698,12.91078 32.18283,27.0487 2.47097,7.3922 3.07898,13.97489 2.23127,24.15699 -1.02796,12.34693 -3.4948,22.16446 -7.83218,31.17041 -5.85192,12.15069 -13.87296,19.49499 -23.46101,21.48159 -3.01868,0.62546 -7.59772,0.54039 -10.23993,-0.19022 -9.073371,-2.50896 -14.552021,-11.17123 -12.735511,-20.13607 0.557178,-2.74979 2.673995,-10.43814 4.361037,-15.83945 4.375244,-14.00796 5.747034,-19.71929 6.037224,-25.13542 0.44886,-8.37784 -2.85448,-15.11249 -8.775249,-17.89044 -2.727849,-1.27987 -4.637431,-1.633 -8.062967,-1.49107 -5.312066,0.22011 -8.788826,1.85 -13.123701,6.15235 -3.876572,3.84748 -6.297848,8.12973 -7.761062,13.72616 -2.083313,7.96814 -1.681335,17.85736 1.04508,25.71036 0.452102,1.3022 0.881388,2.78436 0.953974,3.29368 0.11145,0.78206 -6.166329,28.07844 -12.869862,55.95937 -2.831259,11.7756 -3.324024,14.76971 -3.756041,22.82225 -0.245433,4.57471 -0.244925,7.34988 0.0024,12.43541 0.31333,6.44593 1.123693,14.5664 1.647888,16.5131 0.465209,1.72767 1.942793,2.29476 3.266366,1.25365 z"
         id="path1519"
         inkscape:connector-curvature="0" />
      <path
         style="fill:#b73835;stroke-width:0.26458332"
         d="M -38.704754,198.72619 V 63.259529 H 96.761906 232.22857 V 198.72619 334.19285 H 96.761906 -38.704754 Z m 93.346567,101.44743 c 1.129922,-0.79143 7.156484,-9.25313 10.66334,-14.97204 2.655419,-4.33041 6.892795,-12.61915 8.363987,-16.36081 1.66787,-4.24187 2.708627,-7.91437 6.598306,-23.28333 1.97037,-7.78537 3.632925,-14.20756 3.694562,-14.27154 0.06164,-0.064 0.310348,0.17415 0.552688,0.52917 0.24234,0.35502 1.340929,1.58109 2.44131,2.72461 4.675444,4.8587 12.492871,8.59821 20.221794,9.67321 2.56336,0.35653 8.26031,0.36658 11.41223,0.0201 11.17668,-1.22849 21.36316,-5.56578 30.1625,-12.84287 14.12032,-11.67756 23.52319,-30.87971 26.1653,-53.43375 2.02382,-17.27608 0.37637,-29.16815 -5.79129,-41.80417 -8.86367,-18.15951 -25.74862,-31.49196 -46.70005,-36.874632 -10.28243,-2.64168 -22.35197,-3.246927 -34.528125,-1.731471 -19.330127,2.405849 -35.944737,10.113353 -48.640765,22.564423 -6.001377,5.88559 -10.650833,12.24198 -14.357299,19.62824 -3.596473,7.16707 -5.578975,13.46901 -7.028661,22.34261 -0.579909,3.54963 -0.436383,14.30618 0.248888,18.65312 1.097502,6.96189 3.352623,13.90918 6.047351,18.62992 1.593871,2.79221 4.482174,6.65097 6.365954,8.50489 3.384724,3.33108 9.706522,7.24264 12.396482,7.67023 2.209827,0.35127 4.115411,-0.72583 4.990521,-2.82079 0.664548,-1.59089 3.068156,-11.51545 3.068156,-12.66849 0,-1.43046 -0.47938,-2.50451 -1.894888,-4.24548 -4.420737,-5.43718 -6.833235,-11.29335 -7.60231,-18.45409 -0.389437,-3.62599 -0.365471,-5.83822 0.109289,-10.08812 1.89175,-16.93435 10.225222,-30.96007 23.778852,-40.0212 6.313575,-4.22087 13.303784,-6.99881 21.139255,-8.40081 6.386914,-1.14281 12.376991,-1.36423 18.71312,-0.6917 21.89281,2.32373 36.36522,14.88553 40.09807,34.80439 0.57655,3.07657 0.80103,13.24706 0.39285,17.79975 -2.23544,24.93374 -11.8823,43.70118 -25.82082,50.233 -3.2292,1.51325 -6.2249,2.16143 -10.04363,2.17314 -3.8174,0.0117 -5.63915,-0.40516 -8.99583,-2.05851 -2.923524,-1.43999 -5.099978,-3.34097 -6.791166,-5.93161 -2.785353,-4.26673 -3.353207,-9.10256 -1.791015,-15.25223 1.016363,-4.00097 1.9938,-7.40068 3.9556,-13.75833 4.672201,-15.14129 5.791861,-20.17274 5.809031,-26.10433 0.0144,-4.97744 -1.17805,-9.07891 -3.561739,-12.2505 -1.504683,-2.00205 -2.957449,-3.16762 -5.29363,-4.24714 -2.538169,-1.17285 -4.303088,-1.53823 -7.408333,-1.53368 -5.506608,0.008 -10.140912,2.12658 -14.451673,6.60639 -8.504388,8.8379 -10.947577,24.94335 -6.014574,39.64793 l 1.065802,3.17701 -6.120852,25.92716 c -3.366471,14.25994 -6.826959,28.90372 -7.689974,32.54174 -2.774278,11.69489 -3.326939,16.85723 -3.086295,28.82874 0.152196,7.57148 0.327776,10.15023 1.117652,16.41501 0.457656,3.62982 0.77093,4.78269 1.399241,5.14929 0.674839,0.39374 1.975401,0.32357 2.640788,-0.14248 z"
         id="path1517"
         inkscape:connector-curvature="0" />
    </g>
  </g>
</svg>
